<?xml version="1.0" standalone="no"?>
<!DOCTYPE svg PUBLIC "-//W3C//DTD SVG 20010904//EN"
 "http://www.w3.org/TR/2001/REC-SVG-20010904/DTD/svg10.dtd">
<svg version="1.0" xmlns="http://www.w3.org/2000/svg"
 width="6502.000000pt" height="6502.000000pt" viewBox="0 0 6502.000000 6502.000000"
 preserveAspectRatio="xMidYMid meet">
<metadata>
Created by potrace 1.14, written by Peter Selinger 2001-2017
</metadata>
<g transform="translate(0.000000,6502.000000) scale(0.100000,-0.100000)"
fill="#000000" stroke="none">
<path d="M32479 64983 c-12 -21 -28 -47 -34 -58 -12 -22 -50 -84 -290 -480
-87 -143 -163 -269 -169 -280 -6 -11 -43 -72 -81 -135 -39 -63 -74 -123 -80
-132 -5 -10 -33 -55 -60 -100 -28 -46 -143 -236 -255 -423 -113 -187 -208
-342 -211 -345 -3 -3 -8 -10 -10 -16 -2 -6 -33 -59 -69 -117 -36 -59 -69 -115
-75 -125 -5 -9 -33 -55 -61 -102 -29 -47 -60 -99 -70 -117 -17 -28 -96 -158
-260 -427 -30 -49 -54 -90 -54 -92 0 -2 -15 -28 -34 -57 -19 -29 -45 -71 -58
-93 -20 -35 -53 -89 -109 -182 -9 -15 -134 -223 -279 -462 -456 -755 -612
-1012 -670 -1110 -32 -52 -142 -234 -245 -405 -103 -170 -255 -422 -338 -560
-272 -451 -367 -610 -377 -625 -5 -8 -25 -42 -45 -75 -19 -33 -106 -177 -193
-320 -87 -143 -220 -363 -297 -490 -76 -126 -173 -286 -215 -355 -42 -69 -79
-132 -83 -140 -4 -8 -52 -89 -108 -180 -99 -163 -289 -475 -320 -528 -24 -40
-491 -813 -594 -982 -48 -80 -96 -158 -105 -175 -10 -16 -122 -203 -250 -415
-129 -212 -252 -416 -274 -453 -23 -38 -48 -80 -57 -95 -9 -15 -69 -115 -134
-222 -148 -244 -692 -1146 -714 -1182 -55 -93 -289 -480 -377 -623 -58 -93
-109 -179 -114 -190 -6 -11 -18 -32 -28 -48 -15 -24 -353 -582 -409 -675 -19
-33 -67 -114 -113 -191 -9 -14 -31 -51 -50 -82 -19 -30 -40 -64 -46 -75 -12
-19 -361 -597 -401 -663 -12 -20 -38 -63 -58 -96 -20 -33 -41 -69 -48 -79 -47
-75 -78 -127 -95 -157 -10 -19 -83 -139 -161 -267 -77 -128 -141 -237 -141
-242 0 -4 -3 -10 -8 -12 -6 -3 -170 -269 -241 -392 -13 -23 -67 -113 -121
-201 -125 -206 -204 -336 -260 -430 -67 -113 -271 -451 -365 -605 -46 -74 -93
-153 -106 -175 -37 -62 -105 -176 -277 -460 -87 -143 -254 -420 -372 -615
-117 -195 -250 -413 -293 -485 -44 -71 -85 -139 -91 -150 -7 -11 -34 -57 -61
-103 -28 -46 -57 -95 -66 -110 -9 -15 -81 -133 -159 -262 -79 -129 -148 -245
-154 -257 -6 -13 -14 -23 -18 -23 -5 0 -8 -5 -8 -11 0 -7 -15 -35 -32 -63 -18
-28 -38 -60 -45 -71 -73 -121 -142 -237 -223 -370 -54 -88 -106 -174 -116
-192 -11 -18 -102 -169 -204 -337 -102 -168 -189 -313 -195 -323 -5 -10 -35
-58 -65 -108 -30 -49 -59 -98 -65 -107 -5 -10 -66 -110 -135 -224 -69 -113
-147 -244 -175 -290 -27 -46 -83 -139 -124 -206 -41 -67 -81 -134 -88 -148 -8
-14 -26 -44 -41 -68 -15 -23 -120 -196 -234 -385 -114 -188 -238 -394 -277
-457 -39 -63 -76 -124 -81 -135 -6 -11 -19 -33 -30 -50 -10 -16 -25 -40 -32
-53 -7 -12 -65 -108 -128 -212 -63 -105 -122 -203 -131 -218 -9 -15 -128 -211
-264 -437 -136 -225 -260 -430 -275 -455 -15 -25 -130 -216 -257 -425 -126
-209 -240 -398 -254 -420 -13 -23 -29 -50 -36 -60 -7 -11 -36 -60 -66 -110
-29 -49 -125 -207 -211 -350 -87 -143 -167 -276 -178 -295 -11 -19 -24 -39
-28 -45 -4 -5 -17 -26 -28 -45 -11 -19 -97 -163 -192 -320 -95 -157 -212 -350
-260 -430 -109 -181 -417 -692 -522 -865 -43 -71 -82 -137 -87 -145 -5 -8 -61
-100 -124 -205 -63 -104 -198 -328 -300 -497 -103 -168 -195 -321 -205 -340
-19 -31 -205 -339 -444 -733 -60 -99 -115 -189 -121 -200 -6 -11 -25 -42 -42
-70 -16 -27 -34 -57 -40 -67 -5 -10 -53 -89 -105 -174 -52 -86 -105 -173 -116
-193 -12 -20 -113 -187 -224 -371 -112 -184 -215 -354 -229 -378 -14 -24 -31
-51 -36 -60 -6 -9 -40 -66 -76 -127 -37 -60 -106 -175 -154 -255 -48 -79 -95
-157 -104 -172 -9 -15 -119 -197 -245 -405 -126 -208 -236 -389 -243 -403 -8
-14 -23 -38 -33 -55 -11 -16 -30 -47 -42 -69 -25 -43 -32 -53 -67 -110 -23
-37 -24 -39 -5 -50 10 -6 27 -15 36 -21 46 -27 275 -163 307 -181 20 -12 137
-81 261 -154 124 -74 249 -147 278 -164 112 -66 416 -246 612 -361 113 -67
231 -137 264 -156 32 -19 70 -41 85 -50 14 -9 42 -25 61 -36 19 -11 109 -64
200 -118 91 -53 199 -117 240 -142 41 -24 82 -48 90 -53 8 -4 112 -66 230
-136 230 -136 269 -159 570 -336 329 -194 644 -380 918 -543 9 -6 35 -21 57
-33 22 -12 54 -31 70 -41 58 -35 811 -479 845 -498 19 -11 114 -67 210 -125
96 -57 244 -144 328 -193 84 -50 201 -119 260 -154 59 -35 123 -72 142 -83 19
-11 89 -52 155 -92 66 -39 128 -75 137 -81 36 -21 189 -111 348 -205 91 -54
266 -157 390 -230 124 -73 272 -161 330 -195 58 -34 184 -108 280 -165 96 -56
203 -120 237 -141 34 -22 64 -39 66 -39 3 0 57 -31 121 -70 64 -38 120 -70
125 -70 5 0 11 -4 13 -8 2 -4 26 -21 53 -36 63 -36 701 -412 1025 -604 285
-168 371 -219 690 -407 129 -76 297 -176 374 -222 76 -45 140 -83 141 -83 2 0
90 -52 195 -115 106 -63 194 -115 195 -115 2 0 61 -34 131 -76 71 -42 143 -84
159 -94 17 -9 64 -37 105 -62 41 -25 242 -143 445 -263 204 -120 453 -267 555
-328 102 -60 201 -119 220 -129 32 -19 126 -74 580 -343 91 -54 180 -106 198
-116 73 -43 108 -63 337 -199 132 -79 256 -152 275 -163 19 -10 170 -99 335
-197 165 -98 314 -186 332 -196 18 -11 116 -68 218 -129 103 -60 199 -117 213
-125 61 -35 380 -224 414 -246 21 -13 40 -24 43 -24 3 0 24 -12 48 -27 23 -15
152 -92 287 -171 135 -79 259 -153 275 -163 17 -10 41 -24 55 -32 14 -7 88
-51 165 -97 198 -118 353 -208 405 -237 25 -14 50 -29 55 -33 8 -6 696 -413
810 -480 34 -20 672 -397 695 -411 47 -28 250 -147 261 -153 8 -4 23 -12 34
-19 11 -7 65 -39 120 -71 55 -32 133 -79 174 -103 41 -25 88 -53 105 -63 50
-28 188 -110 366 -215 91 -54 180 -106 199 -117 41 -23 234 -137 316 -187 118
-71 100 -71 211 -5 55 33 107 63 116 69 38 22 341 201 366 216 24 15 249 147
532 314 115 68 831 490 1002 591 60 35 159 94 220 130 62 37 125 74 140 83 15
9 112 66 215 126 102 61 213 126 245 145 49 30 505 299 671 396 63 37 759 448
872 515 44 26 118 70 165 97 47 27 157 92 245 144 202 120 726 429 950 561 94
54 190 112 215 127 25 15 113 67 195 115 83 49 193 114 245 145 84 51 470 278
620 365 30 18 138 82 240 142 102 60 203 120 225 133 22 13 150 89 285 169
135 79 317 187 405 238 177 104 174 103 261 156 34 20 66 37 73 37 6 0 11 5
11 10 0 6 5 10 10 10 6 0 28 11 50 25 36 23 461 275 505 299 21 12 174 102
400 236 72 42 186 110 255 150 69 40 141 83 160 95 85 54 262 155 271 155 5 0
9 3 9 8 0 4 10 12 23 18 35 17 501 292 514 303 7 6 14 11 17 11 5 0 109 61
436 255 91 54 185 109 210 123 25 13 52 30 60 37 8 7 20 14 25 16 9 3 124 71
213 124 9 6 35 21 57 33 22 12 54 31 70 41 17 10 57 34 90 53 33 19 184 108
335 198 151 90 289 171 305 180 55 32 249 146 325 192 41 24 181 107 310 183
228 134 382 225 695 411 83 49 155 91 160 94 6 3 52 30 103 60 51 30 108 63
125 74 135 78 377 222 397 235 14 8 45 26 70 39 25 14 52 30 60 37 8 6 44 28
80 48 36 21 83 48 105 62 22 14 47 28 55 32 8 4 100 58 204 120 104 62 191
113 194 113 2 0 16 8 30 19 15 10 43 27 62 38 37 20 305 178 380 223 25 15
124 74 220 130 96 56 203 120 237 141 34 22 65 39 69 39 3 0 18 8 32 19 15 10
47 29 72 43 25 14 92 54 150 88 100 60 411 243 475 280 17 9 89 52 160 95 72
43 146 87 165 98 58 32 370 217 437 259 34 21 64 38 67 38 2 0 33 18 67 40 35
22 71 43 79 47 8 3 39 21 68 40 29 18 54 33 57 33 2 0 32 17 67 39 35 21 117
70 183 108 66 39 134 79 151 89 17 11 62 37 100 58 38 22 71 44 72 48 2 4 8 8
12 8 9 0 95 50 440 255 118 70 229 135 245 144 28 15 377 221 383 226 3 2 -37
71 -78 135 -17 25 -35 56 -42 70 -7 14 -15 27 -18 30 -3 3 -11 16 -18 30 -7
14 -25 45 -41 70 -32 51 -431 711 -614 1015 -66 110 -197 326 -290 480 -93
154 -178 294 -187 310 -10 17 -43 71 -74 120 -30 50 -67 110 -81 135 -14 25
-34 59 -44 75 -74 121 -518 857 -533 885 -11 19 -26 42 -34 51 -8 8 -14 18
-14 21 0 4 -54 95 -120 203 -66 108 -134 221 -152 252 -18 30 -43 72 -55 92
-13 20 -39 63 -59 96 -19 33 -49 83 -66 110 -17 28 -38 64 -48 80 -9 17 -68
113 -130 215 -62 102 -118 194 -124 205 -6 11 -51 85 -99 165 -110 181 -107
176 -136 225 -14 22 -121 200 -239 395 -118 195 -222 367 -231 382 -28 48
-213 354 -391 648 -95 157 -180 299 -190 315 -10 17 -102 170 -205 340 -103
171 -196 324 -205 340 -10 17 -43 71 -73 120 -45 73 -272 449 -362 599 -71
118 -401 665 -472 781 -47 77 -97 160 -112 185 -14 25 -87 146 -161 268 -74
123 -142 235 -151 250 -123 205 -606 1004 -620 1024 -11 14 -19 29 -19 33 0 4
-15 30 -33 58 -68 104 -157 256 -157 265 0 6 -4 12 -8 14 -4 2 -37 53 -73 113
-77 129 -269 446 -574 950 -120 198 -225 374 -235 390 -19 33 -392 650 -460
760 -23 39 -52 86 -64 106 -11 21 -91 152 -176 293 -85 140 -161 265 -168 278
-7 13 -23 39 -35 59 -12 20 -84 139 -160 265 -76 126 -208 344 -293 484 -85
140 -160 264 -165 275 -5 11 -29 50 -52 87 -56 90 -227 372 -252 417 -12 20
-33 55 -48 79 -16 24 -36 58 -46 75 -10 18 -96 160 -191 317 -166 273 -357
590 -391 648 -9 15 -94 155 -189 312 -95 157 -180 297 -189 312 -9 15 -79 132
-156 259 -77 127 -149 247 -161 268 -11 20 -71 118 -132 219 -62 101 -112 187
-112 192 0 6 -4 10 -9 10 -5 0 -11 8 -14 18 -4 9 -52 91 -107 182 -103 167
-357 585 -375 617 -23 41 -125 209 -330 548 -192 317 -251 414 -316 523 -9 15
-134 223 -279 462 -144 239 -271 449 -281 465 -10 17 -24 41 -32 55 -8 14 -81
135 -163 270 -203 333 -415 684 -436 720 -10 17 -45 76 -80 132 -34 57 -138
229 -231 383 -93 154 -177 294 -187 310 -10 17 -82 136 -160 265 -78 129 -150
249 -160 265 -30 51 -544 900 -581 960 -10 17 -24 41 -31 55 -7 14 -15 27 -18
30 -3 3 -10 14 -17 25 -6 11 -73 123 -150 249 -76 126 -148 245 -159 265 -12
20 -113 187 -224 371 -196 323 -315 520 -492 813 -45 77 -92 154 -103 172 -96
158 -393 651 -406 673 -17 29 -293 486 -308 512 -36 57 -250 410 -267 439 -11
20 -118 196 -236 391 -118 195 -240 398 -272 450 -31 52 -61 102 -66 110 -6 8
-53 87 -106 175 -53 88 -141 234 -196 325 -55 91 -124 206 -154 255 -29 50
-58 97 -63 105 -6 8 -27 44 -49 80 -21 36 -143 238 -272 450 -128 212 -285
473 -350 580 -64 107 -183 304 -264 438 -81 134 -155 257 -164 272 -15 25
-359 595 -552 912 -36 60 -70 116 -75 125 -32 57 -239 399 -245 406 -4 5 -18
-9 -31 -30z"/>
<path d="M12532 28088 c26 -35 133 -185 158 -222 27 -39 134 -191 143 -201 6
-7 423 -593 487 -685 26 -37 481 -677 494 -695 8 -11 46 -65 85 -120 39 -55
77 -109 85 -120 8 -11 96 -135 196 -275 99 -140 196 -275 214 -300 18 -25 111
-155 206 -290 215 -304 395 -557 420 -590 10 -14 53 -74 96 -135 84 -120 84
-120 289 -409 184 -259 262 -369 273 -381 4 -5 28 -39 53 -75 44 -63 234 -330
486 -685 67 -93 131 -183 143 -200 11 -16 38 -53 58 -82 20 -28 150 -210 287
-404 138 -194 266 -374 285 -400 19 -27 89 -125 155 -219 66 -94 152 -215 190
-268 39 -53 117 -162 174 -242 434 -613 521 -736 528 -745 5 -5 31 -41 58 -80
76 -109 85 -122 330 -465 127 -177 243 -341 259 -364 51 -73 367 -518 441
-621 39 -55 172 -242 295 -415 123 -173 301 -423 395 -555 94 -132 238 -334
320 -450 82 -115 237 -334 345 -485 108 -151 222 -313 255 -360 33 -47 63 -89
68 -95 4 -5 35 -48 68 -95 86 -122 91 -128 127 -176 17 -24 32 -48 32 -53 0
-5 3 -11 8 -13 4 -1 54 -70 112 -151 126 -178 352 -495 491 -690 90 -126 579
-814 723 -1017 64 -91 123 -173 131 -182 7 -9 22 -29 32 -45 10 -15 140 -199
288 -408 354 -497 417 -585 435 -611 30 -44 154 -219 163 -229 4 -5 84 -118
178 -250 93 -132 176 -249 184 -260 8 -11 69 -96 135 -190 66 -93 126 -177
133 -185 7 -9 30 -43 52 -75 22 -33 46 -67 52 -75 7 -8 94 -130 193 -270 100
-140 188 -264 196 -275 8 -11 40 -57 72 -101 31 -45 65 -92 74 -105 10 -13 48
-67 85 -119 37 -52 71 -96 75 -98 4 -2 8 -9 8 -15 0 -7 10 -24 23 -39 12 -14
49 -65 82 -113 33 -47 81 -115 108 -150 26 -35 47 -68 47 -73 0 -6 4 -12 8
-14 5 -1 69 -88 143 -193 73 -104 137 -194 142 -200 4 -5 30 -41 57 -80 27
-38 53 -74 57 -80 9 -10 45 -62 149 -210 26 -38 53 -75 59 -82 5 -6 25 -33 43
-60 18 -26 77 -109 130 -184 53 -75 176 -247 272 -382 96 -136 275 -388 397
-559 123 -172 228 -321 235 -331 7 -11 31 -44 54 -75 22 -32 62 -88 89 -127
27 -38 51 -72 54 -75 3 -3 26 -34 51 -70 24 -36 48 -69 53 -75 4 -5 40 -56 80
-112 94 -134 356 -503 584 -823 100 -140 226 -318 281 -395 173 -243 633 -889
647 -910 8 -11 77 -108 153 -215 195 -274 613 -863 992 -1395 11 -16 49 -69
83 -117 34 -48 154 -217 266 -375 112 -158 221 -310 241 -338 20 -27 83 -115
139 -195 56 -80 109 -154 117 -165 8 -11 113 -159 234 -330 121 -170 227 -318
235 -328 8 -9 15 -19 15 -21 0 -2 71 -103 158 -224 86 -122 249 -350 361 -509
112 -158 221 -310 241 -338 20 -27 92 -129 160 -225 68 -96 151 -213 185 -260
33 -47 67 -95 75 -107 8 -12 46 -65 84 -118 64 -89 71 -95 84 -78 7 10 72 101
144 203 72 102 148 208 168 235 20 28 126 176 235 330 109 154 211 298 227
320 16 22 51 72 78 110 27 39 53 75 57 80 5 6 24 33 43 60 19 28 40 56 47 63
7 8 18 22 23 32 8 16 173 248 329 465 46 63 373 524 403 568 7 10 30 42 50 70
83 115 114 158 221 310 100 140 237 333 715 1005 73 103 140 196 148 207 8 11
69 98 137 192 283 401 524 740 559 787 20 28 113 159 207 291 94 132 176 248
183 258 7 9 35 47 61 85 26 37 79 111 118 166 39 54 91 128 117 165 25 36 50
71 54 76 8 10 464 650 490 689 20 28 156 219 170 238 7 9 40 55 73 103 66 95
180 254 192 270 5 6 51 70 103 144 52 73 110 154 128 180 18 25 41 57 50 71
16 23 154 217 457 641 72 101 148 208 169 238 21 31 143 202 271 381 127 179
280 394 341 479 60 84 129 182 154 217 25 35 63 89 86 121 22 32 124 175 225
318 435 610 1034 1452 1053 1480 12 17 154 217 317 445 318 447 675 948 1049
1475 266 374 690 969 920 1292 85 119 173 242 195 274 61 86 196 276 233 328
18 25 41 57 50 71 9 13 155 218 324 455 168 236 340 477 381 535 41 58 176
247 299 420 123 173 302 425 398 560 96 135 228 322 295 415 67 94 244 343
395 555 150 212 315 444 366 515 51 72 108 151 126 178 18 26 44 62 58 81 14
19 42 58 63 87 68 96 265 373 287 404 12 17 66 93 121 170 54 77 105 149 113
160 8 11 53 74 100 140 46 66 98 138 114 160 24 33 696 977 878 1235 30 41 60
84 68 95 8 11 102 144 210 295 107 151 211 298 231 325 20 28 59 82 86 120 71
101 66 94 206 290 70 99 135 190 143 202 8 12 67 94 130 183 180 252 408 573
422 594 7 10 22 30 33 44 11 14 43 58 70 98 28 41 140 199 250 353 221 310
839 1177 855 1201 6 8 134 188 284 400 151 212 323 454 383 538 95 135 145
205 198 278 9 12 81 113 160 225 79 112 151 213 159 224 16 22 124 174 443
622 116 164 231 324 254 357 35 49 38 56 18 46 -21 -11 -393 -229 -839 -493
-74 -44 -150 -88 -169 -99 -60 -34 -255 -150 -319 -189 -35 -22 -65 -39 -68
-39 -3 0 -30 -16 -60 -35 -30 -19 -56 -35 -59 -35 -3 0 -35 -19 -72 -42 -56
-34 -211 -126 -444 -262 -38 -22 -543 -321 -569 -336 -8 -5 -89 -53 -180 -106
-91 -53 -212 -125 -270 -159 -58 -34 -170 -100 -250 -147 -213 -125 -710 -419
-742 -437 -14 -9 -73 -43 -129 -76 -56 -33 -119 -70 -138 -81 -81 -48 -326
-193 -481 -283 -91 -54 -196 -116 -234 -139 -37 -23 -70 -42 -71 -42 -2 0 -67
-38 -146 -85 -78 -47 -143 -85 -145 -85 -2 0 -28 -16 -58 -35 -30 -19 -57 -35
-59 -35 -2 0 -74 -42 -159 -94 -86 -51 -162 -96 -170 -100 -7 -4 -22 -12 -33
-19 -11 -7 -89 -52 -173 -102 -84 -49 -165 -98 -180 -107 -15 -10 -34 -21 -42
-25 -8 -4 -78 -44 -154 -90 -76 -46 -140 -83 -142 -83 -3 0 -198 -115 -254
-150 -13 -8 -198 -117 -299 -176 -20 -12 -202 -119 -406 -239 -203 -121 -417
-246 -473 -279 -114 -67 -108 -63 -307 -181 -77 -45 -207 -123 -290 -171 -82
-49 -159 -94 -170 -101 -11 -7 -27 -16 -35 -20 -8 -4 -80 -46 -160 -93 -80
-47 -171 -102 -204 -121 -32 -19 -70 -41 -85 -50 -14 -9 -42 -25 -62 -37 -20
-11 -69 -40 -110 -64 -114 -69 -322 -191 -344 -203 -19 -11 -246 -145 -290
-172 -11 -7 -27 -15 -35 -19 -8 -4 -32 -18 -53 -31 -34 -21 -554 -328 -917
-541 -247 -145 -394 -232 -410 -242 -8 -6 -22 -13 -30 -17 -8 -3 -34 -19 -57
-35 -23 -15 -44 -28 -48 -28 -3 0 -24 -11 -46 -26 -22 -14 -55 -33 -72 -43
-18 -10 -95 -56 -172 -101 -140 -83 -192 -114 -448 -264 -76 -45 -175 -103
-220 -130 -45 -26 -102 -60 -127 -74 -25 -14 -62 -36 -83 -49 -21 -13 -53 -32
-70 -42 -48 -27 -421 -247 -502 -295 -38 -24 -113 -68 -165 -98 -52 -31 -142
-84 -200 -118 -58 -35 -121 -72 -140 -83 -37 -21 -276 -161 -399 -235 -41 -24
-88 -52 -105 -62 -17 -9 -121 -70 -231 -135 -110 -65 -236 -139 -280 -165 -44
-26 -130 -76 -190 -112 -61 -36 -133 -79 -160 -95 -28 -16 -65 -37 -83 -48
-18 -11 -113 -67 -210 -124 -268 -157 -557 -328 -647 -381 -44 -26 -170 -101
-280 -166 -110 -64 -232 -136 -271 -160 -39 -23 -86 -51 -105 -61 -31 -17
-223 -131 -259 -153 -16 -11 -207 -122 -256 -150 -16 -10 -67 -39 -112 -66
-101 -60 -101 -60 -185 -109 -38 -22 -81 -47 -95 -56 -15 -9 -83 -49 -152 -89
-69 -40 -136 -80 -150 -89 -28 -17 -375 -222 -430 -253 -19 -11 -109 -64 -200
-118 -187 -111 -867 -512 -920 -542 -19 -11 -111 -66 -205 -122 -230 -137
-219 -132 -249 -112 -14 8 -40 24 -58 35 -64 36 -206 120 -598 351 -217 129
-442 261 -499 294 -56 34 -117 69 -135 80 -17 10 -94 56 -171 101 -77 45 -207
122 -290 171 -82 49 -158 94 -167 99 -91 53 -298 175 -327 192 -20 12 -69 41
-110 65 -41 24 -86 50 -100 58 -50 29 -326 193 -374 221 -26 16 -52 29 -57 29
-6 0 -10 5 -10 10 0 6 -5 10 -10 10 -6 0 -27 11 -48 24 -20 13 -116 70 -212
126 -308 181 -784 462 -872 515 -9 5 -29 17 -45 26 -35 20 -61 35 -258 151
-88 52 -171 101 -185 109 -14 8 -27 16 -30 19 -3 3 -16 11 -30 18 -14 7 -41
22 -61 35 -20 12 -92 55 -160 95 -68 40 -131 77 -139 82 -8 5 -76 45 -150 88
-74 44 -220 130 -325 192 -104 62 -210 124 -235 138 -25 13 -65 37 -90 52 -47
29 -477 283 -520 307 -14 8 -37 22 -52 31 -14 9 -73 44 -130 76 -57 33 -104
63 -106 68 -2 4 -8 8 -14 8 -9 0 -106 55 -178 100 -8 5 -60 36 -115 68 -55 32
-163 96 -240 142 -77 45 -153 91 -170 100 -16 10 -79 47 -140 83 -60 35 -184
108 -275 161 -176 104 -173 102 -265 157 -63 38 -241 143 -360 212 -38 22
-108 64 -155 92 -47 29 -105 63 -130 77 -25 14 -106 61 -180 105 -151 90 -680
401 -896 529 -78 46 -155 91 -172 101 -17 10 -66 39 -109 64 -84 50 -401 236
-578 341 -60 36 -189 111 -285 168 -96 57 -188 111 -205 121 -16 11 -36 22
-44 25 -7 4 -61 36 -118 71 -58 34 -107 63 -109 63 -2 0 -21 11 -42 24 -33 21
-210 126 -632 374 -298 175 -345 203 -360 212 -8 5 -78 46 -155 91 -77 45
-156 91 -175 104 -19 13 -54 33 -77 46 -59 34 -203 118 -378 222 -82 49 -163
97 -180 106 -37 20 -357 210 -443 262 -35 22 -65 39 -67 39 -2 0 -54 31 -117
68 -62 38 -155 93 -206 123 -116 68 -114 66 -192 113 -36 21 -78 47 -95 56
-41 24 -383 225 -585 345 -168 99 -205 121 -262 154 -18 10 -80 46 -138 81
-58 34 -168 100 -245 145 -77 45 -291 171 -475 280 -184 109 -386 228 -448
264 -63 36 -130 76 -150 88 -20 13 -68 41 -107 63 -38 23 -83 49 -100 59 -16
10 -46 27 -65 38 -19 12 -120 71 -225 133 -104 62 -203 120 -220 130 -61 36
-206 121 -420 247 -121 72 -326 192 -455 268 -129 76 -246 145 -260 154 -14 8
-34 21 -45 27 -11 6 -34 19 -52 30 -18 10 -105 62 -195 115 -90 53 -215 127
-278 164 -190 112 -314 186 -330 195 -8 5 -51 30 -95 56 -44 26 -93 55 -110
64 -16 10 -88 52 -159 94 -70 42 -130 76 -133 76 -3 0 6 -15 19 -32z"/>
</g>
</svg>
